<svg id="图层_1" xmlns="http://www.w3.org/2000/svg" xmlns:xlink="http://www.w3.org/1999/xlink" width="200" height="200" viewBox="0 0 200 200" enable-background="new 0 0 200 200"><circle fill="#f8a200" cx="100" cy="100" r="50.25"/><g><path fill="#fff" d="M88.736 88.016h2.651c.478.0.717.239.717.717v2.651c0 .478-.239.717-.717.717h-2.651c-.478.0-.717-.239-.717-.717v-2.651C88.019 88.255 88.258 88.016 88.736 88.016z"/><path fill="#fff" d="M97.918 101.362H82.195c-.396.002-.716.323-.717.719v14.577c0 1.027.833 1.86 1.86 1.86.0.0.0.0.0.0h14.579c.396-.001.717-.322.717-.719v-15.711c.004-.397-.315-.722-.712-.725C97.92 101.362 97.919 101.362 97.918 101.362v0zM94.929 105.068v9.737h-9.737v-9.737H94.929z"/><path fill="#fff" d="M88.736 107.895h2.651c.478.0.717.239.717.717v2.651c0 .478-.239.717-.717.717h-2.651c-.478.0-.717-.239-.717-.717v-2.651C88.019 108.134 88.258 107.895 88.736 107.895z"/><path fill="#fff" d="M97.918 81.483H83.339c-1.027.0-1.86.833-1.86 1.86V97.92c.001.396.321.716.717.717H97.92c.396.0.717-.321.717-.717V82.198C98.635 81.803 98.313 81.483 97.918 81.483zM94.929 85.189v9.737h-9.737v-9.737H94.929z"
		/><path fill="#fff" d="M108.615 88.016h2.651c.478.0.717.239.717.717v2.651c0 .478-.239.717-.717.717h-2.651c-.478.0-.717-.239-.717-.717v-2.651C107.898 88.255 108.137 88.016 108.615 88.016z"/><path fill="#fff" d="M116.661 81.483h-14.579c-.396.002-.716.323-.717.719v15.713c.001.396.321.716.717.717h15.723c.396-.001.716-.321.717-.717V83.338C118.519 82.312 117.686 81.482 116.661 81.483v0zM114.801 85.189v9.737h-9.735v-9.737h9.735z"/><path fill="#fff" d="M117.797 101.362h-2.272c-.396.001-.718.322-.719.719v6.002h-3.014v-6.002c0-.396-.321-.718-.717-.719h-8.993c-.396.002-.716.323-.717.719v15.711c.001.396.321.717.717.719h2.272c.396-.001.717-.322.717-.719v-11.209h3.014v4.489c.001.396.322.718.719.719h8.993c.396-.002.716-.323.717-.719v-8.991C118.513 101.685 118.193 101.364 117.797 101.362v0z"/><path fill="#fff" d="M108.802 114.804h2.272c.478.0.717.239.717.717v2.272c0 .478-.239.717-.717.717h-2.272c-.478.0-.717-.239-.717-.717v-2.272C108.086 115.043 108.325 114.804 108.802 114.804z"/><path fill="#fff" d="M115.523 114.804h2.272c.478.0.717.239.717.717v2.272c0 .478-.239.717-.717.717h-2.272c-.478.0-.717-.239-.717-.717v-2.272C114.806 115.043 115.045 114.804 115.523 114.804z"/></g></svg>